<?xml version="1.0" encoding="utf-8"?>
<!-- Generator: Adobe Illustrator 27.0.1, SVG Export Plug-In . SVG Version: 6.00 Build 0)  -->
<svg version="1.1" id="Layer_1" xmlns="http://www.w3.org/2000/svg" xmlns:xlink="http://www.w3.org/1999/xlink" x="0px" y="0px"
	 width="122px" height="26.5px" viewBox="0 0 150.44 31.33" style="enable-background:new 0 0 122 26.5;" xml:space="preserve">
<style type="text/css">
  .cls-1 {
        stroke-width: 0px;
      }
	.st0{fill:#1D1F23;}
	.st1{fill:#131417;}
</style>
 <path class="cls-1" d="m33.95,12.03l-2.57,18.78H0v-.09c.97-.92,1.94-2.77,1.94-6.21V6.29C1.94,2.86.97,1.01,0,.09v-.09h19.71v.09c-1.19.92-2.38,2.77-2.38,6.2v23.98h.79l15.73-18.25h.09Z"/>
      <path class="cls-1" d="m58.71,20.02c-1.32,6.34-5.72,11.31-14.04,11.31s-13.25-5.28-13.25-11.97c0-7.44,5.85-12.1,13.51-12.1,8.89,0,13.42,4.31,11.97,11.66h-12.03c1.53,1.69,3.75,2.73,6.84,2.73,1.89,0,4.4-.44,6.91-1.63h.09Zm-16.63-11.71c-.97,0-.09,4.36.53,6.29.41,1.44,1.01,2.74,1.86,3.83.22-3.85-.87-10.12-2.39-10.12h0Z"/>
      <path class="cls-1" d="m59.33,19.85c2.51,5.63,11.35,10.91,14.17,10.91.4,0,.57-.18.57-.4,0-2.07-14.88-6.25-14.88-15.23,0-5.33,3.96-7.92,11.27-7.92,3.83,0,8.36.7,11.27,1.41l.48,9.07h-.09c-3.7-6.07-11.79-9.73-14.65-9.73-.53,0-.57.26-.57.4,0,1.58,16.85,7.39,16.85,15.05,0,4.49-3.61,7.92-11.62,7.92-4.8,0-9.11-.62-12.32-1.5l-.57-9.99h.09Z"/>
      <path class="cls-1" d="m97.71,8.27v15.36c0,2.82.31,4.09,2.46,4.18v.09c-1.01,1.58-3.3,3.43-7.66,3.43-7.57,0-7.57-5.28-7.57-7.92v-15.14h-1.8v-.09L97.62.44h.09v7.3h2.46v.53h-2.46Z"/>
      <path class="cls-1" d="m126.68,20.02c-1.32,6.34-5.72,11.31-14.04,11.31s-13.25-5.28-13.25-11.97c0-7.44,5.85-12.1,13.51-12.1,8.89,0,13.42,4.31,11.97,11.66h-12.03c1.53,1.69,3.75,2.73,6.84,2.73,1.89,0,4.4-.44,6.91-1.63h.09Zm-16.63-11.71c-.97,0-.09,4.36.53,6.29.41,1.44,1.01,2.74,1.86,3.83.22-3.85-.87-10.12-2.39-10.12h0Z"/>
      <path class="cls-1" d="m147.19,7.17c.97,0,2.02.18,3.26.57v12.1c-3.33-1.28-8.52-1.44-10.52.03v7.75c0,1.72.79,2.64,1.58,3.08v.09h-15.31v-.09c.48-.44.97-1.36.97-3.08V11.44c0-1.72-.53-2.64-1.06-3.08v-.09l13.73-.53-.18,10.96h.09v-.26c.48-6.65,2.51-11.27,7.44-11.27h0Z"/>
</svg>
